<svg xmlns="http://www.w3.org/2000/svg" width="8" height="12" viewBox="0 0 8 12"><defs><mask id="4cncb" width="2" height="2" x="-1" y="-1"><path fill="#fff" d="M1 0h6v10H1z"/><path d="M1.882 10a.892.892 0 0 0 .626-.254l4.236-4.143a.84.84 0 0 0 0-1.208L2.508.252A.9.9 0 0 0 1.26.248a.84.84 0 0 0-.004 1.212L4.874 5 1.256 8.537A.84.84 0 0 0 1.26 9.75a.894.894 0 0 0 .622.25z"/></mask><filter id="4cnca" width="28" height="33" x="-10" y="-11" filterUnits="userSpaceOnUse"><feOffset dy="1" in="SourceGraphic" result="FeOffset1114Out"/><feGaussianBlur in="FeOffset1114Out" result="FeGaussianBlur1115Out" stdDeviation="0.4 0.4"/></filter></defs><g><g><g filter="url(#4cnca)"><path fill="none" d="M1.882 10a.892.892 0 0 0 .626-.254l4.236-4.143a.84.84 0 0 0 0-1.208L2.508.252A.9.9 0 0 0 1.26.248a.84.84 0 0 0-.004 1.212L4.874 5 1.256 8.537A.84.84 0 0 0 1.26 9.75a.894.894 0 0 0 .622.25z" mask="url(&quot;#4cncb&quot;)"/><path fill="#979797" fill-opacity=".63" d="M1.882 10a.892.892 0 0 0 .626-.254l4.236-4.143a.84.84 0 0 0 0-1.208L2.508.252A.9.9 0 0 0 1.26.248a.84.84 0 0 0-.004 1.212L4.874 5 1.256 8.537A.84.84 0 0 0 1.26 9.75a.894.894 0 0 0 .622.25z"/></g><path fill="#fff" d="M1.882 10a.892.892 0 0 0 .626-.254l4.236-4.143a.84.84 0 0 0 0-1.208L2.508.252A.9.9 0 0 0 1.26.248a.84.84 0 0 0-.004 1.212L4.874 5 1.256 8.537A.84.84 0 0 0 1.26 9.75a.894.894 0 0 0 .622.25z"/></g></g></svg>