<svg xmlns="http://www.w3.org/2000/svg" width="13" height="13" viewBox="0 0 13 13"><defs><mask id="q4ldb" width="2" height="2" x="-1" y="-1"><path fill="#fff" d="M1 0h11v11H1z"/><path d="M11.084 8.673a1.134 1.134 0 0 1 0 1.608 1.144 1.144 0 0 1-1.614 0l-1.346-1.34c-.035-.036-.063-.075-.092-.114a4.575 4.575 0 0 1-5.558-.69 4.539 4.539 0 0 1 0-6.436 4.577 4.577 0 0 1 6.457 0 4.536 4.536 0 0 1 .694 5.538c.039.03.078.058.114.093zm-3.229-5.9a3.052 3.052 0 0 0-4.305 0 3.026 3.026 0 0 0 0 4.29 3.051 3.051 0 0 0 4.305 0 3.026 3.026 0 0 0 0-4.29z"/></mask><filter id="q4lda" width="31" height="32" x="-9" y="-10" filterUnits="userSpaceOnUse"><feOffset dy="1" in="SourceGraphic" result="FeOffset1089Out"/><feGaussianBlur in="FeOffset1089Out" result="FeGaussianBlur1090Out" stdDeviation="0 0"/></filter><filter id="q4ldc" width="200%" height="200%" x="-50%" y="-50%"><feGaussianBlur in="SourceGraphic" result="FeGaussianBlur1095Out" stdDeviation="0.5 0.5"/></filter><mask id="q4ldd"><path fill="#fff" d="M11.084 8.673a1.134 1.134 0 0 1 0 1.608 1.144 1.144 0 0 1-1.614 0l-1.346-1.34c-.035-.036-.063-.075-.092-.114a4.575 4.575 0 0 1-5.558-.69 4.539 4.539 0 0 1 0-6.436 4.577 4.577 0 0 1 6.457 0 4.536 4.536 0 0 1 .694 5.538c.039.03.078.058.114.093zm-3.229-5.9a3.052 3.052 0 0 0-4.305 0 3.026 3.026 0 0 0 0 4.29 3.051 3.051 0 0 0 4.305 0 3.026 3.026 0 0 0 0-4.29z"/></mask></defs><g><g><g filter="url(#q4lda)"><path fill="none" d="M11.084 8.673a1.134 1.134 0 0 1 0 1.608 1.144 1.144 0 0 1-1.614 0l-1.346-1.34c-.035-.036-.063-.075-.092-.114a4.575 4.575 0 0 1-5.558-.69 4.539 4.539 0 0 1 0-6.436 4.577 4.577 0 0 1 6.457 0 4.536 4.536 0 0 1 .694 5.538c.039.03.078.058.114.093zm-3.229-5.9a3.052 3.052 0 0 0-4.305 0 3.026 3.026 0 0 0 0 4.29 3.051 3.051 0 0 0 4.305 0 3.026 3.026 0 0 0 0-4.29z" mask="url(&quot;#q4ldb&quot;)"/><path fill="#fff" d="M11.084 8.673a1.134 1.134 0 0 1 0 1.608 1.144 1.144 0 0 1-1.614 0l-1.346-1.34c-.035-.036-.063-.075-.092-.114a4.575 4.575 0 0 1-5.558-.69 4.539 4.539 0 0 1 0-6.436 4.577 4.577 0 0 1 6.457 0 4.536 4.536 0 0 1 .694 5.538c.039.03.078.058.114.093zm-3.229-5.9a3.052 3.052 0 0 0-4.305 0 3.026 3.026 0 0 0 0 4.29 3.051 3.051 0 0 0 4.305 0 3.026 3.026 0 0 0 0-4.29z"/></g><path fill="#2d2d2d" d="M11.084 8.673a1.134 1.134 0 0 1 0 1.608 1.144 1.144 0 0 1-1.614 0l-1.346-1.34c-.035-.036-.063-.075-.092-.114a4.575 4.575 0 0 1-5.558-.69 4.539 4.539 0 0 1 0-6.436 4.577 4.577 0 0 1 6.457 0 4.536 4.536 0 0 1 .694 5.538c.039.03.078.058.114.093zm-3.229-5.9a3.052 3.052 0 0 0-4.305 0 3.026 3.026 0 0 0 0 4.29 3.051 3.051 0 0 0 4.305 0 3.026 3.026 0 0 0 0-4.29z"/><path fill-opacity=".15" d="M0 13V-2h13v15zm9.739-4.668c-.036-.035-.075-.063-.114-.093a4.536 4.536 0 0 0-.694-5.538 4.577 4.577 0 0 0-6.457 0 4.539 4.539 0 0 0 0 6.435 4.575 4.575 0 0 0 5.558.691c.03.039.057.078.092.114l1.346 1.34a1.144 1.144 0 0 0 1.614 0 1.134 1.134 0 0 0 0-1.608zm-1.884-.268a3.051 3.051 0 0 1-4.305 0 3.026 3.026 0 0 1 0-4.29 3.052 3.052 0 0 1 4.305 0 3.026 3.026 0 0 1 0 4.29z" filter="url(#q4ldc)" mask="url(&quot;#q4ldd&quot;)"/></g></g></svg>